<svg width="37" height="40" viewBox="0 0 37 40" fill="none" xmlns="http://www.w3.org/2000/svg">
<path d="M16.2647 4.59352C14.3782 4.59352 12.8435 6.12825 12.8435 8.0147C12.8435 9.90114 14.3782 11.4359 16.2647 11.4359C18.1511 11.4359 19.6859 9.90114 19.6859 8.0147C19.6859 6.12825 18.1512 4.59352 16.2647 4.59352ZM16.2647 10.264C15.0244 10.264 14.0154 9.25498 14.0154 8.0147C14.0154 6.77441 15.0244 5.76537 16.2647 5.76537C17.505 5.76537 18.514 6.77441 18.514 8.0147C18.514 9.25498 17.505 10.264 16.2647 10.264Z" fill="black"/>
<path d="M8.19479 8.91827C6.30835 8.91827 4.77362 10.453 4.77362 12.3395C4.77362 14.2259 6.30835 15.7606 8.19479 15.7606C10.0812 15.7606 11.616 14.2259 11.616 12.3395C11.616 10.453 10.0813 8.91827 8.19479 8.91827ZM8.19479 14.5889C6.95451 14.5889 5.94547 13.5798 5.94547 12.3395C5.94547 11.0992 6.95451 10.0902 8.19479 10.0902C9.43508 10.0902 10.4441 11.0992 10.4441 12.3395C10.4441 13.5798 9.43508 14.5889 8.19479 14.5889Z" fill="black"/>
<path d="M6.17669 17.4078C4.29025 17.4078 2.75552 18.9425 2.75552 20.829C2.75552 22.7154 4.29025 24.2502 6.17669 24.2502C8.06314 24.2502 9.59787 22.7154 9.59787 20.829C9.59787 18.9425 8.06321 17.4078 6.17669 17.4078ZM6.17669 23.0783C4.93641 23.0783 3.92737 22.0693 3.92737 20.829C3.92737 19.5887 4.93641 18.5797 6.17669 18.5797C7.41698 18.5797 8.42602 19.5887 8.42602 20.829C8.42602 22.0693 7.41698 23.0783 6.17669 23.0783Z" fill="black"/>
<path d="M17.1985 27.9032C17.1985 29.7897 18.7332 31.3244 20.6197 31.3244C22.5061 31.3244 24.0409 29.7897 24.0409 27.9032C24.0409 26.0168 22.5061 24.482 20.6197 24.482C18.7332 24.482 17.1985 26.0168 17.1985 27.9032ZM20.6197 25.6539C21.86 25.6539 22.8691 26.6629 22.8691 27.9032C22.8691 29.1435 21.86 30.1525 20.6197 30.1525C19.3794 30.1525 18.3703 29.1435 18.3703 27.9032C18.3703 26.6629 19.3794 25.6539 20.6197 25.6539Z" fill="black"/>
<path d="M36.2996 4.80085C35.9788 4.76023 35.6854 4.98749 35.6447 5.30858C35.5759 5.85224 35.4493 6.35371 35.2882 6.72066C35.1036 7.14104 34.8202 7.50619 34.4626 7.79282L29.7356 5.78615C29.7048 5.33944 29.7807 4.89179 29.9634 4.47586C30.6381 2.93949 33.1818 0.68157 34.5394 1.25812C35.2109 1.54311 35.4874 2.51333 35.5925 3.06628C35.6529 3.38425 35.9602 3.59276 36.2775 3.53244C36.5954 3.47198 36.8042 3.16527 36.7438 2.84738C36.4831 1.47632 35.8792 0.55376 34.9973 0.179393C32.8485 -0.73254 29.7575 2.03037 28.8904 4.00462C28.6887 4.46422 28.5773 4.9514 28.5584 5.4442C28.1151 5.48178 27.705 5.75247 27.5157 6.18325L27.067 7.20502C26.9338 7.5083 26.9278 7.84485 27.0499 8.15266C27.1731 8.46312 27.4114 8.70647 27.7209 8.8378L27.9212 8.92287L26.3674 12.7536C24.4813 11.7249 23.3285 9.73668 23.3978 7.60681C23.4394 6.32379 23.0028 5.08124 22.1687 4.10806C20.7739 2.48106 19.0579 2.24864 16.9305 2.23974C14.9386 2.23154 12.9866 2.56567 11.1226 3.23261C10.8179 3.34167 10.6593 3.67697 10.7683 3.98165C10.8774 4.28633 11.2131 4.44492 11.5174 4.33594C13.2527 3.71502 15.0704 3.40573 16.9258 3.41151C17.5308 3.41401 18.1399 3.45073 18.7363 3.52065C20.7931 3.76181 22.2936 5.50209 22.2266 7.56861C22.1417 10.1836 23.5812 12.6271 25.924 13.8466L23.0141 21.0203C23.0141 21.0025 23.0139 20.9846 23.0145 20.9668C23.0252 20.6433 22.7717 20.3725 22.4482 20.3618C22.128 20.3505 21.854 20.6045 21.8433 20.928C21.7491 23.7693 25.6268 25.8156 28.1462 24.3177C28.4244 24.1523 28.5157 23.7928 28.3503 23.5147C28.2162 23.289 27.9541 23.1864 27.7116 23.2439L31.2831 15.6991C32.124 16.4666 32.5327 17.4408 32.5453 18.652C32.5908 22.6975 30.9992 26.5602 28.0637 29.5288C23.3288 34.3169 16.4706 35.4113 10.7406 33.0241C5.01784 30.6398 0.967066 24.9868 1.1798 18.3292C1.35995 12.6962 4.64324 7.80368 9.42399 5.26139C9.70969 5.10944 9.81812 4.75468 9.66625 4.46891C9.5143 4.18321 9.1597 4.07485 8.87377 4.22665C3.75833 6.94706 0.203333 12.1993 0.00857153 18.2917C-0.295953 27.8192 7.55372 35.5845 17.1775 35.4091L16.477 37.1358C16.0474 38.195 16.5421 39.3776 17.6033 39.8281C18.653 40.2737 19.8617 39.8262 20.3497 38.7953L22.3927 34.4796C24.8112 33.6364 27.0323 32.2383 28.8968 30.3529C32.0694 27.1447 33.8196 22.9213 33.7132 18.4264C33.6773 16.9365 32.9704 15.536 31.8022 14.6022L33.3914 11.245L33.6046 11.3356C34.2361 11.6037 34.9699 11.312 35.2426 10.6913L35.6912 9.66934C35.8244 9.36607 35.8304 9.02959 35.7083 8.72178C35.6632 8.60827 35.6024 8.5039 35.5287 8.41054C35.8779 8.06071 36.1603 7.649 36.3611 7.19166C36.5693 6.71769 36.7236 6.11739 36.8073 5.45561C36.848 5.13468 36.6207 4.84148 36.2996 4.80085ZM19.2906 38.294C19.0782 38.7426 18.5272 38.9471 18.0614 38.7495C17.5954 38.5516 17.3765 38.0363 17.5631 37.5762L18.4722 35.3353C19.2896 35.2575 20.0954 35.1205 20.8848 34.9264L19.2906 38.294ZM26.2256 23.6439C25.2263 23.644 24.2629 23.1835 23.667 22.5284L29.0001 9.38091L32.3119 10.7868L26.2256 23.6439ZM34.6184 9.19834L34.1697 10.2202C34.1535 10.2571 34.1035 10.2743 34.0627 10.2569L28.1787 7.75915C28.1444 7.74454 28.1253 7.70946 28.1401 7.67618L28.5887 6.65441C28.6048 6.61753 28.6551 6.60027 28.6958 6.61769L34.5796 9.11545C34.6037 9.12568 34.6144 9.14217 34.6192 9.1542C34.628 9.17638 34.6207 9.19295 34.6184 9.19834Z" fill="black"/>
<path d="M8.50463 27.3815C8.50463 28.511 9.06197 29.5669 9.99538 30.2059C10.2625 30.3888 10.6271 30.3205 10.8099 30.0535C10.9927 29.7865 10.9244 29.4218 10.6575 29.239C10.0433 28.8185 9.67648 28.1241 9.67648 27.3815C9.67648 26.1412 10.6855 25.1321 11.9258 25.1321C13.1662 25.1321 14.1752 26.1412 14.1752 27.3815C14.1752 28.4031 13.4861 29.2976 12.4994 29.5569C12.1864 29.6392 11.9993 29.9595 12.0815 30.2724C12.164 30.5865 12.4852 30.7723 12.797 30.6903C14.2985 30.2959 15.3471 28.9352 15.3471 27.3815C15.3471 25.495 13.8123 23.9603 11.9258 23.9603C10.0394 23.9603 8.50463 25.4949 8.50463 27.3815Z" fill="black"/>
</svg>
