<?xml version="1.0" encoding="UTF-8"?>
<svg version="1.1" xmlns="http://www.w3.org/2000/svg" width="64" height="64">
<path d="M0 0 C0.99 0.33 1.98 0.66 3 1 C3.33 12.22 3.66 23.44 4 35 C7.63 31.37 11.26 27.74 15 24 C16.32 24.33 17.64 24.66 19 25 C17.60652624 28.15204981 15.97514921 30.26171773 13.5234375 32.671875 C12.853125 33.33574219 12.1828125 33.99960937 11.4921875 34.68359375 C10.79351562 35.36550781 10.09484375 36.04742187 9.375 36.75 C8.66859375 37.44738281 7.9621875 38.14476562 7.234375 38.86328125 C5.49401297 40.58012488 3.74915019 42.29211832 2 44 C-1.15204981 42.60652624 -3.26171773 40.97514921 -5.671875 38.5234375 C-6.33574219 37.853125 -6.99960937 37.1828125 -7.68359375 36.4921875 C-8.36550781 35.79351562 -9.04742188 35.09484375 -9.75 34.375 C-10.44738281 33.66859375 -11.14476562 32.9621875 -11.86328125 32.234375 C-13.58012488 30.49401297 -15.29211832 28.74915019 -17 27 C-16.505 25.515 -16.505 25.515 -16 24 C-11.68269587 24.47409648 -9.66352539 27.03396703 -6.75 30.0625 C-5.85796875 30.98160156 -4.9659375 31.90070312 -4.046875 32.84765625 C-3.37140625 33.55792969 -2.6959375 34.26820312 -2 35 C-1.97494385 33.97527588 -1.9498877 32.95055176 -1.92407227 31.89477539 C-1.83015516 28.10590324 -1.72989683 24.31722119 -1.62768555 20.52856445 C-1.58427703 18.88635697 -1.54260642 17.24410261 -1.50268555 15.60180664 C-1.4451256 13.24611255 -1.38139108 10.89065572 -1.31640625 8.53515625 C-1.29133751 7.42733543 -1.29133751 7.42733543 -1.26576233 6.2971344 C-1.11387171 1.11387171 -1.11387171 1.11387171 0 0 Z " fill="#000000" transform="translate(31,5)"/>
<path d="M0 0 C1.32 0.33 2.64 0.66 4 1 C4 2.98 4 4.96 4 7 C17.2 7 30.4 7 44 7 C44 5.02 44 3.04 44 1 C45.32 0.67 46.64 0.34 48 0 C48.02688151 1.64574566 48.04634123 3.29161413 48.0625 4.9375 C48.07410156 5.85402344 48.08570313 6.77054688 48.09765625 7.71484375 C48 10 48 10 47 11 C45.56259647 11.09813987 44.12043673 11.1279828 42.6796875 11.12939453 C41.76203613 11.13254669 40.84438477 11.13569885 39.89892578 11.13894653 C38.90103027 11.1369223 37.90313477 11.13489807 36.875 11.1328125 C35.85776855 11.13376923 34.84053711 11.13472595 33.79248047 11.13571167 C31.63704364 11.13639361 29.48160478 11.13453835 27.32617188 11.13037109 C24.01427629 11.12502305 20.70251633 11.13031563 17.390625 11.13671875 C15.30208303 11.13605797 13.21354115 11.13477681 11.125 11.1328125 C9.62815674 11.13584885 9.62815674 11.13584885 8.10107422 11.13894653 C7.18342285 11.13579437 6.26577148 11.13264221 5.3203125 11.12939453 C4.50836426 11.12859894 3.69641602 11.12780334 2.85986328 11.12698364 C1 11 1 11 0 10 C-0.07205511 8.31391034 -0.08386068 6.62499341 -0.0625 4.9375 C-0.05347656 4.01839844 -0.04445313 3.09929688 -0.03515625 2.15234375 C-0.02355469 1.44207031 -0.01195312 0.73179688 0 0 Z " fill="#000000" transform="translate(8,48)"/>
</svg>
