<svg width="13" height="13" viewBox="0 0 13 13" fill="none" xmlns="http://www.w3.org/2000/svg">
<path d="M11.7439 1.47487L10.6455 0.376393C10.1437 -0.125476 9.32713 -0.125452 8.82526 0.376393C8.35274 0.848953 1.13551 8.06671 0.653194 8.54905C0.601821 8.60042 0.567398 8.6687 0.555135 8.73548L0.00594022 11.7014C-0.0153429 11.8164 0.0213048 11.9345 0.103999 12.0172C0.186788 12.1 0.304922 12.1365 0.419766 12.1153L3.38541 11.566C3.45395 11.5532 3.52133 11.5185 3.57185 11.4679L11.7439 3.29525C12.2469 2.79222 12.247 1.97797 11.7439 1.47487ZM0.798317 11.3228L1.13054 9.52866L2.59233 10.9905L0.798317 11.3228ZM3.32076 10.7146L1.40648 8.80019L8.39536 1.81079L10.3096 3.7252L3.32076 10.7146ZM11.2417 2.79305L10.8118 3.223L8.89754 1.30859L9.32744 0.87864C9.55236 0.653688 9.91834 0.653665 10.1433 0.87864L11.2417 1.97712C11.4672 2.20262 11.4672 2.56753 11.2417 2.79305Z" fill="black"/>
</svg>
