<svg width="50" height="40" viewBox="0 0 50 40" fill="none" xmlns="http://www.w3.org/2000/svg">
<path d="M41.542 25.6184C41.2727 25.1293 40.676 24.9618 40.2095 25.2441L39.1574 25.8812L37.4606 22.8002L38.5127 22.1635C38.9796 21.8812 39.1395 21.2553 38.8698 20.7662C38.6005 20.2771 38.0038 20.1095 37.5373 20.3919L36.4852 21.029L34.7884 17.948L35.8405 17.3113C36.3075 17.029 36.4673 16.4031 36.198 15.914C35.9283 15.4249 35.3317 15.2573 34.8651 15.5397L33.813 16.1767L32.1162 13.0957L33.1683 12.4591C33.6353 12.1767 33.7951 11.5509 33.5258 11.0618C33.2561 10.5727 32.6595 10.4051 32.1929 10.6874L31.1408 11.3245L29.8144 8.91618C29.5451 8.42708 28.9485 8.25951 28.482 8.54186C28.0154 8.8242 27.8552 9.45008 28.1249 9.93918L29.4509 12.3471L28.3988 12.9842C27.9323 13.2665 27.7721 13.892 28.0418 14.3811C28.2226 14.7094 28.5503 14.8926 28.8875 14.8926C29.053 14.8926 29.2209 14.8486 29.3742 14.7554L30.4267 14.1187L32.1231 17.1993L31.071 17.8364C30.6045 18.1187 30.4443 18.7442 30.714 19.2333C30.8944 19.5617 31.2225 19.7448 31.5597 19.7448C31.7252 19.7448 31.8931 19.7008 32.0464 19.6076L33.0989 18.971L34.7953 22.0516L33.7432 22.6886C33.2767 22.971 33.1165 23.5964 33.3862 24.0855C33.5666 24.4139 33.8947 24.597 34.2319 24.597C34.3974 24.597 34.5653 24.5531 34.7186 24.4599L35.7711 23.8232L37.4675 26.9038L36.4154 27.5409C35.9489 27.8232 35.7887 28.4487 36.0584 28.9378C36.2388 29.2661 36.5668 29.4493 36.9041 29.4493C37.0696 29.4493 37.2375 29.4053 37.3908 29.3121L38.4433 28.6754L39.7693 31.0833C39.9501 31.4117 40.2778 31.5948 40.615 31.5948C40.7806 31.5948 40.9484 31.5509 41.1021 31.4577C41.5687 31.1753 41.7285 30.5499 41.4592 30.0607L40.1328 27.6524L41.1849 27.0158C41.6515 26.7334 41.8117 26.1075 41.542 25.6184Z" fill="black"/>
<path d="M48.5499 17.1774C48.3683 16.6455 47.8102 16.3688 47.3025 16.5588C46.7955 16.7491 46.5312 17.3346 46.7127 17.8665C48.8902 24.2488 48.3885 31.1362 45.336 36.7623C44.9366 37.4985 44.1886 37.9544 43.381 37.9544C43.376 37.9544 43.3711 37.9544 43.3661 37.9544C35.802 37.9032 28.6277 33.3769 24.6436 26.1424C21.3168 20.1016 20.6626 12.9859 22.7145 6.78913C22.7176 6.77993 22.7214 6.77154 22.7244 6.76234C22.7256 6.75834 22.7263 6.75474 22.7271 6.75074C23.1307 5.53979 23.6369 4.36362 24.2476 3.23785C24.647 2.5016 25.3951 2.04569 26.2027 2.04569H26.2172C32.392 2.08729 38.333 5.07628 42.5166 10.246C42.8652 10.6767 43.4806 10.7299 43.8918 10.3644C44.3026 9.99888 44.353 9.35341 44.0043 8.9227C39.4522 3.29784 32.9738 0.0456995 26.2298 0.000108757C24.7115 -0.011089 23.3024 0.843138 22.5516 2.22686C22.0309 3.18586 21.58 4.17846 21.197 5.19626C19.7944 4.80833 18.3463 4.61157 16.88 4.61157C15.1752 4.61157 13.5295 4.87872 11.9769 5.37382C11.927 5.38542 11.8777 5.40061 11.8304 5.42061C8.30643 6.58117 5.27718 8.9239 3.16613 12.0029C3.10052 12.0757 3.04483 12.158 3.00134 12.2484C1.17372 15.0119 0.0769965 18.344 0.00642479 21.9365C-0.0012046 22.0056 -0.00196753 22.0752 0.00375451 22.144C0.00337303 22.198 0.00184716 22.2516 0.00184716 22.3056C0.00184716 26.2276 1.22598 29.8549 3.29354 32.7915C3.34047 32.883 3.40074 32.967 3.47207 33.0402C5.46449 35.7681 8.19504 37.8732 11.349 39.023C11.3971 39.045 11.4467 39.0638 11.4974 39.0774C13.1885 39.6753 14.9985 40 16.88 40C18.7324 40 20.5485 39.6817 22.2644 39.0762C22.3159 39.0622 22.3659 39.0434 22.4147 39.021C24.9022 38.1156 27.1747 36.6051 29.0343 34.5819C33.1248 37.9984 38.1522 39.9648 43.3535 40H43.3806C44.8886 40 46.2859 39.1486 47.032 37.7733C50.3657 31.6285 50.9192 24.1216 48.5499 17.1774ZM16.88 27.5017L12.1799 23.9217L13.9751 18.1292H19.8955C20.1957 20.1216 20.7213 22.0956 21.4713 24.0044L16.88 27.5017ZM10.258 23.5021L6.31249 24.8567L1.97099 21.5497C2.10222 18.6727 2.97845 15.9969 4.40057 13.7297H9.71214L12.1844 17.2866L10.258 23.5021ZM2.05682 24.1436L4.96972 26.3624L3.8585 29.948C2.9178 28.1936 2.29066 26.2308 2.05682 24.1436ZM20.5588 7.13626C19.7421 10.0169 19.4457 13.0531 19.6673 16.0836H13.7626L11.3036 12.546L12.9588 7.20585C14.2089 6.84872 15.5234 6.65676 16.88 6.65676C18.1289 6.65676 19.3622 6.81833 20.5588 7.13626ZM10.6311 8.09607L9.51912 11.6841H5.92873C7.24976 10.188 8.84545 8.96229 10.6311 8.09607ZM5.24476 32.096L6.88164 26.8135L10.8627 25.4474L15.9042 29.2874V33.6489L11.5871 36.937C9.08158 35.9372 6.89728 34.2504 5.24476 32.096ZM13.9655 37.6537L16.88 35.4341L19.7929 37.6529C18.8415 37.8512 17.8668 37.954 16.88 37.954C15.8828 37.9544 14.9085 37.8504 13.9655 37.6537ZM22.1725 36.937L17.8554 33.6489V29.2874L22.3014 25.9009C22.5074 26.3268 22.7244 26.7483 22.9537 27.165C24.216 29.4569 25.775 31.4981 27.5546 33.2418C26.0238 34.8834 24.1843 36.1368 22.1725 36.937Z" fill="black"/>
<path d="M45.7846 14.3694C46.0421 14.3694 46.2927 14.2599 46.4751 14.0687C46.6566 13.8795 46.76 13.6156 46.76 13.3456C46.76 13.0765 46.6566 12.8125 46.4751 12.6222C46.2927 12.4322 46.0421 12.3226 45.7846 12.3226C45.5279 12.3226 45.2772 12.4322 45.0949 12.6222C44.9133 12.8125 44.8099 13.0765 44.8099 13.3456C44.8099 13.6156 44.9133 13.8795 45.0949 14.0687C45.2772 14.2599 45.5279 14.3694 45.7846 14.3694Z" fill="black"/>
</svg>
