<svg width="43" height="40" viewBox="0 0 43 40" fill="none" xmlns="http://www.w3.org/2000/svg">
<path d="M32.5928 23.1749C31.585 23.1764 30.5995 22.879 29.7608 22.3202C28.9221 21.7614 28.2681 20.9664 27.8814 20.0357C27.4946 19.1051 27.3927 18.0807 27.5884 17.0921C27.7841 16.1035 28.2686 15.1951 28.9807 14.482C29.6928 13.7689 30.6004 13.283 31.5887 13.0858C32.577 12.8887 33.6016 12.9891 34.5328 13.3744C35.464 13.7597 36.26 14.4126 36.82 15.2504C37.3801 16.0882 37.679 17.0734 37.679 18.0812C37.6775 19.4303 37.1414 20.7239 36.1881 21.6787C35.2348 22.6334 33.942 23.1714 32.5928 23.1749ZM32.5928 13.9365C31.7727 13.935 30.9707 14.1768 30.2881 14.6313C29.6055 15.0858 29.0731 15.7326 28.7582 16.4898C28.4433 17.247 28.3602 18.0806 28.5192 18.8851C28.6783 19.6896 29.0724 20.4288 29.6518 21.0092C30.2311 21.5896 30.9696 21.9851 31.7738 22.1456C32.578 22.3062 33.4118 22.2245 34.1696 21.9111C34.9273 21.5976 35.5751 21.0664 36.0309 20.3846C36.4866 19.7029 36.7299 18.9012 36.7299 18.0812C36.7287 16.9836 36.2926 15.9313 35.5173 15.1545C34.7419 14.3777 33.6903 13.9397 32.5928 13.9365Z" fill="black"/>
<path d="M32.5928 20.9289C32.0293 20.9303 31.4782 20.7645 31.009 20.4525C30.5398 20.1405 30.1738 19.6963 29.9572 19.1761C29.7406 18.656 29.6832 18.0833 29.7922 17.5305C29.9013 16.9777 30.1719 16.4697 30.5698 16.0708C30.9677 15.6719 31.4751 15.4 32.0276 15.2895C32.5801 15.1791 33.1529 15.2351 33.6736 15.4504C34.1943 15.6656 34.6394 16.0306 34.9526 16.499C35.2658 16.9674 35.4329 17.5181 35.4329 18.0816C35.4319 18.8352 35.1326 19.5577 34.6004 20.0913C34.0682 20.6248 33.3464 20.926 32.5928 20.9289ZM32.5928 16.1834C32.2171 16.182 31.8494 16.2921 31.5363 16.4998C31.2232 16.7075 30.9788 17.0035 30.834 17.3502C30.6893 17.6969 30.6507 18.0788 30.7231 18.4475C30.7955 18.8162 30.9757 19.1551 31.2409 19.4213C31.5061 19.6874 31.8443 19.8689 32.2127 19.9427C32.5811 20.0166 32.9632 19.9794 33.3104 19.8359C33.6577 19.6925 33.9546 19.4492 34.1634 19.1369C34.3723 18.8246 34.4838 18.4573 34.4838 18.0816C34.4834 17.5794 34.2842 17.0979 33.9299 16.7421C33.5756 16.3863 33.0949 16.1851 32.5928 16.1824V16.1834Z" fill="black"/>
<path d="M17.4249 12.4953C16.9564 12.4953 16.4986 12.3563 16.1091 12.096C15.7197 11.8357 15.4162 11.4657 15.237 11.0329C15.0578 10.6001 15.011 10.1239 15.1024 9.66453C15.1939 9.20513 15.4195 8.78315 15.7508 8.45196C16.082 8.12077 16.504 7.89525 16.9635 7.8039C17.4229 7.71255 17.8991 7.75948 18.3318 7.93876C18.7646 8.11803 19.1344 8.42161 19.3947 8.81109C19.6549 9.20057 19.7938 9.65847 19.7938 10.1269C19.7927 10.7548 19.5427 11.3566 19.0987 11.8006C18.6547 12.2445 18.0528 12.4943 17.4249 12.4953ZM17.4249 8.70752C17.1442 8.70761 16.8698 8.79093 16.6364 8.94695C16.4031 9.10297 16.2212 9.32468 16.1139 9.58405C16.0065 9.84341 15.9785 10.1288 16.0333 10.4041C16.0881 10.6794 16.2233 10.9322 16.4219 11.1307C16.6204 11.3292 16.8733 11.4643 17.1486 11.519C17.4239 11.5737 17.7093 11.5456 17.9686 11.4382C18.2279 11.3307 18.4496 11.1488 18.6055 10.9154C18.7615 10.682 18.8447 10.4076 18.8447 10.1269C18.8436 9.75071 18.6936 9.39027 18.4276 9.12432C18.1615 8.85836 17.801 8.70852 17.4249 8.70752Z" fill="black"/>
<path d="M14.467 28.805H13.843V27.8559H14.467C16.0023 27.8565 17.4892 27.3184 18.6685 26.3354C19.8478 25.3524 20.6449 23.9868 20.9209 22.4765L22.4646 14.0371C22.5724 13.4473 22.5361 12.8402 22.3587 12.2674C22.1813 11.6946 21.868 11.1732 21.4457 10.7476C20.9052 10.2046 20.1959 9.86164 19.4346 9.77525L19.0507 9.73206L19.157 8.78867L19.5404 8.83185C20.5166 8.94249 21.426 9.38215 22.1191 10.0785C22.6496 10.6125 23.0431 11.2667 23.2662 11.9856C23.4893 12.7044 23.5353 13.4666 23.4004 14.207L21.8538 22.6454C21.5383 24.3744 20.6262 25.9379 19.2763 27.0635C17.9265 28.1891 16.2246 28.8054 14.467 28.805Z" fill="black"/>
<path d="M14.4053 26.1612H13.9678V25.2121H14.4053C15.4064 25.2071 16.3729 24.8451 17.1309 24.1911C17.8888 23.5371 18.3885 22.6341 18.5401 21.6445L19.7411 13.5416C19.7768 13.3051 19.727 13.0637 19.6006 12.8606C19.4742 12.6576 19.2796 12.5063 19.0516 12.434L18.2776 12.1853L18.5676 11.2837L19.3416 11.5324C19.7841 11.6729 20.162 11.9667 20.4073 12.3609C20.6526 12.7551 20.7492 13.2239 20.6798 13.683L19.4787 21.783C19.2928 22.9973 18.6797 24.1055 17.7497 24.9081C16.8197 25.7106 15.6338 26.155 14.4053 26.1612Z" fill="black"/>
<path d="M10.5102 12.4953C10.0421 12.4938 9.58497 12.3536 9.19647 12.0925C8.80798 11.8313 8.50559 11.4609 8.32749 11.028C8.14939 10.5951 8.10357 10.1191 8.19582 9.66014C8.28806 9.20121 8.51423 8.7799 8.84577 8.44942C9.1773 8.11895 9.59933 7.89412 10.0586 7.80335C10.5178 7.71258 10.9936 7.75992 11.426 7.93941C11.8583 8.11889 12.2278 8.42246 12.4877 8.81179C12.7476 9.20111 12.8863 9.65873 12.8863 10.1268C12.8852 10.756 12.6342 11.3589 12.1887 11.803C11.7431 12.2472 11.1394 12.4962 10.5102 12.4953ZM10.5102 8.70747C10.2299 8.70897 9.95618 8.79349 9.72377 8.95036C9.49135 9.10723 9.31061 9.32943 9.20435 9.58891C9.09808 9.8484 9.07105 10.1335 9.12668 10.4084C9.1823 10.6832 9.31807 10.9354 9.51688 11.1331C9.71568 11.3309 9.96859 11.4653 10.2437 11.5195C10.5188 11.5736 10.8038 11.5451 11.0627 11.4374C11.3217 11.3298 11.5429 11.1479 11.6985 10.9146C11.8541 10.6814 11.9372 10.4072 11.9372 10.1268C11.937 9.93988 11.8998 9.7548 11.8279 9.58221C11.756 9.40962 11.6508 9.25292 11.5182 9.12106C11.3857 8.98921 11.2284 8.88481 11.0555 8.81384C10.8825 8.74287 10.6972 8.70672 10.5102 8.70747Z" fill="black"/>
<path d="M14.094 28.805H13.4681C11.7107 28.8053 10.0088 28.1889 8.65909 27.0633C7.30936 25.9378 6.3973 24.3743 6.0818 22.6454L4.53715 14.208C4.40221 13.4675 4.44825 12.7054 4.67134 11.9865C4.89443 11.2677 5.28797 10.6134 5.81843 10.0794C6.5116 9.383 7.42123 8.94333 8.39759 8.8328L8.77912 8.78867L8.88542 9.73159L8.50199 9.77477C7.7401 9.86098 7.03029 10.2041 6.48944 10.7476C6.0671 11.1732 5.75389 11.6946 5.57649 12.2674C5.3991 12.8402 5.36276 13.4473 5.47059 14.0371L7.01524 22.4765C7.29119 23.9868 8.08827 25.3524 9.2676 26.3354C10.4469 27.3184 11.9338 27.8565 13.4691 27.8559H14.094V28.805Z" fill="black"/>
<path d="M13.9678 26.1612H13.5298C12.3014 26.155 11.1156 25.7106 10.1856 24.9082C9.25565 24.1057 8.64248 22.9977 8.45641 21.7836L7.25676 13.6807C7.18729 13.2216 7.28384 12.7529 7.52905 12.3587C7.77426 11.9645 8.15205 11.6706 8.59451 11.53L9.36897 11.2814L9.65891 12.183L8.88445 12.4317C8.65613 12.5041 8.46121 12.6558 8.33487 12.8594C8.20852 13.0629 8.15906 13.3049 8.19541 13.5416L9.39601 21.6445C9.54763 22.6341 10.0474 23.537 10.8053 24.191C11.5632 24.845 12.5297 25.2071 13.5307 25.2122H13.9687L13.9678 26.1612Z" fill="black"/>
<path d="M23.3439 37.0047C23.1148 37.0047 22.8848 36.995 22.6539 36.9757C20.6031 36.794 18.694 35.8535 17.3002 34.3382C15.9065 32.8229 15.1285 30.8419 15.1186 28.7831V28.2346H16.0677V28.7831C16.0758 30.6041 16.7635 32.3563 17.9959 33.6968C19.2284 35.0372 20.9169 35.8693 22.7308 36.0299C23.7187 36.1159 24.7137 35.9936 25.6515 35.671C26.5892 35.3483 27.4488 34.8325 28.1748 34.1569C28.9494 33.4356 29.5665 32.562 29.9873 31.5908C30.4081 30.6197 30.6236 29.572 30.6201 28.5136V22.4508H31.5692V28.5141C31.5725 29.7037 31.3296 30.8812 30.856 31.9725C30.3823 33.0638 29.6881 34.0453 28.8168 34.8554C27.3304 36.2389 25.3745 37.007 23.3439 37.0047Z" fill="black"/>
<path d="M23.3396 40C20.3658 39.9966 17.5147 38.8137 15.4118 36.7109C13.309 34.6081 12.1261 31.757 12.1228 28.7831V28.2744H13.0718V28.7836C13.0718 31.5081 14.1541 34.1209 16.0806 36.0474C18.0071 37.9738 20.6199 39.0561 23.3444 39.0561C26.0688 39.0561 28.6816 37.9738 30.6081 36.0474C32.5346 34.1209 33.6169 31.5081 33.6169 28.7836V22.4508H34.566V28.7831C34.5613 31.7583 33.3767 34.61 31.2721 36.7129C29.1675 38.8157 26.3147 39.9979 23.3396 40Z" fill="black"/>
</svg>
