<svg width="40" height="40" viewBox="0 0 40 40" fill="none" xmlns="http://www.w3.org/2000/svg">
<path d="M33.397 18.3467V12.8266C33.397 12.3952 33.0471 12.0454 32.6157 12.0454C32.1843 12.0454 31.8345 12.3952 31.8345 12.8266V13.128H29.2155V9.16891C29.2155 4.11313 25.0928 0 20.0254 0H19.9746C14.9072 0 10.7845 4.11313 10.7845 9.16891V13.128H8.16554V12.8266C8.16554 12.3952 7.8157 12.0454 7.38429 12.0454C6.95289 12.0454 6.60304 12.3952 6.60304 12.8266V18.3467C6.60304 24.704 11.0835 30.0368 17.0596 31.3677V33.9536H12.5547C10.9023 33.9536 9.55789 35.298 9.55789 36.9505V39.2188C9.55789 39.6502 9.90773 40 10.3391 40H29.6609C30.0923 40 30.4421 39.6502 30.4421 39.2188V36.9505C30.4421 35.298 29.0978 33.9536 27.4453 33.9536H22.9405V31.3677C28.9166 30.0368 33.397 24.704 33.397 18.3467ZM12.347 9.16891C12.347 4.97477 15.7688 1.5625 19.9746 1.5625H20.0254C24.2313 1.5625 27.653 4.97477 27.653 9.16891V18.6497C27.653 22.8439 24.2313 26.2561 20.0254 26.2561H19.9746C15.7688 26.2561 12.347 22.8438 12.347 18.6497V9.16891ZM8.16554 18.3467V14.6905H10.7845V18.6498C10.7845 23.7055 14.9072 27.8187 19.9746 27.8187H20.0254C25.0928 27.8187 29.2155 23.7055 29.2155 18.6498V14.6905H31.8345V18.3467C31.8345 24.8411 26.5367 30.1247 20.0248 30.1247H19.9752C13.4633 30.1247 8.16554 24.8411 8.16554 18.3467ZM28.8796 36.9505V38.4375H11.1204V36.9505C11.1204 36.1595 11.7638 35.5161 12.5547 35.5161H27.4453C28.2362 35.516 28.8796 36.1595 28.8796 36.9505ZM21.378 33.9535H18.6221V31.6193C19.0672 31.6641 19.5186 31.6871 19.9752 31.6871H20.0249C20.4816 31.6871 20.933 31.6641 21.378 31.6193V33.9535Z" fill="black"/>
<path d="M23.7387 11.1156H24.9387C25.3701 11.1156 25.72 10.7658 25.72 10.3344C25.72 9.90296 25.3701 9.55312 24.9387 9.55312H23.7387C23.3073 9.55312 22.9575 9.90296 22.9575 10.3344C22.9575 10.7658 23.3073 11.1156 23.7387 11.1156Z" fill="black"/>
<path d="M23.7387 18.2655H24.9387C25.3701 18.2655 25.72 17.9157 25.72 17.4843C25.72 17.0529 25.3701 16.703 24.9387 16.703H23.7387C23.3073 16.703 22.9575 17.0529 22.9575 17.4843C22.9575 17.9157 23.3073 18.2655 23.7387 18.2655Z" fill="black"/>
<path d="M23.7387 14.6905H24.9387C25.3701 14.6905 25.72 14.3407 25.72 13.9093C25.72 13.4779 25.3701 13.128 24.9387 13.128H23.7387C23.3073 13.128 22.9575 13.4779 22.9575 13.9093C22.9575 14.3407 23.3073 14.6905 23.7387 14.6905Z" fill="black"/>
<path d="M15.0612 14.6905H16.2612C16.6926 14.6905 17.0424 14.3407 17.0424 13.9093C17.0424 13.4779 16.6926 13.128 16.2612 13.128H15.0612C14.6298 13.128 14.2799 13.4779 14.2799 13.9093C14.2799 14.3407 14.6298 14.6905 15.0612 14.6905Z" fill="black"/>
<path d="M15.0612 11.1156H16.2612C16.6926 11.1156 17.0424 10.7658 17.0424 10.3344C17.0424 9.90296 16.6926 9.55312 16.2612 9.55312H15.0612C14.6298 9.55312 14.2799 9.90296 14.2799 10.3344C14.2799 10.7658 14.6298 11.1156 15.0612 11.1156Z" fill="black"/>
<path d="M15.0612 18.2655H16.2612C16.6926 18.2655 17.0424 17.9157 17.0424 17.4843C17.0424 17.0529 16.6926 16.703 16.2612 16.703H15.0612C14.6298 16.703 14.2799 17.0529 14.2799 17.4843C14.2799 17.9157 14.6298 18.2655 15.0612 18.2655Z" fill="black"/>
</svg>
