<svg width="27" height="40" viewBox="0 0 27 40" fill="none" xmlns="http://www.w3.org/2000/svg">
<path d="M26.1703 10.2128H20V6.71932C20.9811 6.44065 21.7021 5.53729 21.7021 4.46806V2.3404C21.7022 1.04985 20.6522 0 19.3617 0C18.0712 0 17.0213 1.04985 17.0213 2.3404V4.46806C17.0213 5.53729 17.7423 6.44065 18.7234 6.71932V10.2128H14.0426V6.71932C15.0237 6.44065 15.7447 5.53729 15.7447 4.46806V2.3404C15.7447 1.04985 14.6947 0 13.4043 0C12.1138 0 11.0639 1.04985 11.0639 2.3404V4.46806C11.0639 5.53729 11.7849 6.44065 12.766 6.71932V10.2128H8.08511V6.71932C9.06621 6.44065 9.78723 5.53729 9.78723 4.46806V2.3404C9.78723 1.04985 8.7373 0 7.44683 0C6.15635 0 5.10643 1.04985 5.10643 2.3404V4.46806C5.10643 5.53729 5.82744 6.44065 6.80854 6.71932V10.2128H0.638284C0.285704 10.2128 0 10.4986 0 10.8511V13.4043C0 13.7568 0.285704 14.0426 0.638284 14.0426H2.55321V18.5106C2.55321 18.8631 2.83892 19.1489 3.1915 19.1489H3.40423V36.1702H3.1915C2.83892 36.1702 2.55321 36.456 2.55321 36.8085V38.7234H2.34048C1.9879 38.7234 1.70219 39.0092 1.70219 39.3617C1.70219 39.7142 1.9879 40 2.34048 40H24.4682C24.8208 40 25.1065 39.7142 25.1065 39.3617C25.1065 39.0092 24.8208 38.7234 24.4682 38.7234H24.2555V36.8085C24.2555 36.456 23.9698 36.1702 23.6172 36.1702H23.4043V19.149H23.617C23.9696 19.149 24.2553 18.8632 24.2553 18.5107V14.0426H26.1703C26.5228 14.0426 26.8085 13.7569 26.8085 13.4043V10.8511C26.8085 10.4986 26.5228 10.2128 26.1703 10.2128ZM18.2979 4.46814V2.3404C18.2979 1.75376 18.7751 1.27657 19.3617 1.27657C19.9484 1.27657 20.4256 1.75376 20.4256 2.3404V4.46806C20.4256 5.05471 19.9484 5.5319 19.3617 5.5319C18.7751 5.5319 18.2979 5.05471 18.2979 4.46814ZM12.3404 4.46814V2.3404C12.3404 1.75376 12.8176 1.27657 13.4043 1.27657C13.9909 1.27657 14.4681 1.75376 14.4681 2.3404V4.46806C14.4681 5.05471 13.9909 5.5319 13.4043 5.5319C12.8176 5.5319 12.3404 5.05471 12.3404 4.46814ZM6.38299 4.46814V2.3404C6.38299 1.75376 6.86018 1.27657 7.44683 1.27657C8.03347 1.27657 8.51066 1.75376 8.51066 2.3404V4.46806C8.51066 5.05471 8.03347 5.5319 7.44683 5.5319C6.86018 5.5319 6.38299 5.05471 6.38299 4.46814ZM22.9788 38.7236H3.82978V37.447H17.6596C18.0122 37.447 18.2979 37.1612 18.2979 36.8087C18.2979 36.4562 18.0122 36.1705 17.6596 36.1705H4.6808V19.149H22.1277V36.1703H20.2128C19.8602 36.1703 19.5745 36.4561 19.5745 36.8086C19.5745 37.1611 19.8602 37.4469 20.2128 37.4469H22.9788V38.7236ZM22.9788 17.8724H3.82978V14.0426H22.9788V17.8724ZM25.532 12.766H1.27657V11.4894H25.532V12.766Z" fill="black"/>
<path d="M21.0639 15.3192H5.74465C5.39207 15.3192 5.10637 15.605 5.10637 15.9575C5.10637 16.31 5.39207 16.5958 5.74465 16.5958H21.0639C21.4164 16.5958 21.7022 16.31 21.7022 15.9575C21.7022 15.605 21.4165 15.3192 21.0639 15.3192Z" fill="black"/>
<path d="M20.2128 20.4256H6.5957C6.24312 20.4256 5.95742 20.7114 5.95742 21.0639V26.3831C5.95742 26.7356 6.24312 27.0213 6.5957 27.0213C6.94828 27.0213 7.23399 26.7356 7.23399 26.3831V21.7022H19.5744V33.6172H7.23399V28.9363C7.23399 28.5838 6.94828 28.298 6.5957 28.298C6.24312 28.298 5.95742 28.5838 5.95742 28.9363V34.2554C5.95742 34.6079 6.24312 34.8937 6.5957 34.8937H20.2128C20.5654 34.8937 20.8511 34.6079 20.8511 34.2554V21.0639C20.8511 20.7114 20.5654 20.4256 20.2128 20.4256Z" fill="black"/>
</svg>
