<svg width="40" height="40" viewBox="0 0 40 40" fill="none" xmlns="http://www.w3.org/2000/svg">
<path d="M8.58058 32.2958C8.37872 32.1048 8.17494 31.9125 7.97116 31.7184C11.0067 28.7405 14.098 25.082 14.098 20.1195C14.098 15.157 11.0067 11.4986 7.97116 8.52005C8.17494 8.32588 8.37872 8.13363 8.58058 7.94267C11.1977 5.47038 13.4572 3.33517 13.4572 0.894925V0.254105H12.1756V0.894925C12.1756 1.31723 12.0666 1.74401 11.8782 2.17657H2.2198C2.0314 1.74401 1.92246 1.31723 1.92246 0.894925V0.254105H0.64082V0.894925C0.64082 3.33517 2.90035 5.47038 5.51746 7.94331C5.71932 8.13427 5.9231 8.32652 6.12688 8.52069C3.09132 11.4986 0 15.157 0 20.1195C0 25.082 3.09132 28.7405 6.12688 31.719C5.9231 31.9132 5.71932 32.1054 5.51746 32.2964C2.90035 34.7687 0.64082 36.9039 0.64082 39.3441V39.985H1.92246V39.3441C1.92246 38.9218 2.0314 38.4951 2.2198 38.0625H11.8789C12.0666 38.4951 12.1756 38.9218 12.1756 39.3441V39.985H13.4572V39.3441C13.4572 36.9039 11.1977 34.7687 8.58058 32.2958ZM2.98622 3.45821H11.1118C10.7991 3.87666 10.4281 4.30345 10.0173 4.73985H4.08074C3.66998 4.30345 3.2983 3.87666 2.98622 3.45821ZM5.35725 6.02149H8.74014C8.40371 6.34574 8.05639 6.67448 7.70009 7.01155C7.48606 7.21405 7.26818 7.41976 7.04902 7.62802C6.82922 7.41976 6.61198 7.21405 6.39795 7.01155C6.04165 6.67448 5.69368 6.34574 5.35725 6.02149ZM7.04902 9.4095C7.82441 10.1682 8.59083 10.9558 9.29894 11.7889H4.7991C5.50721 10.9558 6.27363 10.1682 7.04902 9.4095ZM2.27491 15.6338H8.33066V14.3521H2.95034C3.22525 13.8876 3.52387 13.4371 3.84492 12.9987V13.0705H10.2531V12.9987C10.5742 13.4364 10.8728 13.8876 11.1477 14.3521H9.6123V15.6338H11.8238C12.0115 16.0484 12.1698 16.4778 12.3089 16.9154H1.78981C1.92887 16.4778 2.08651 16.0484 2.27491 15.6338ZM1.45915 18.1971H12.6395C12.7164 18.6123 12.7606 19.0417 12.7876 19.4787H1.31112C1.33739 19.0417 1.38161 18.6123 1.45915 18.1971ZM1.78917 23.3236H3.84492V22.042H1.45851C1.38161 21.6267 1.33739 21.1974 1.31048 20.7604H12.7869C12.7606 21.1974 12.7164 21.6267 12.6389 22.042H5.12656V23.3236H12.3082C12.1692 23.7613 12.0115 24.1907 11.8231 24.6053H2.27427C2.08651 24.1907 1.92823 23.7613 1.78917 23.3236ZM3.84492 27.2403C3.52387 26.802 3.22525 26.3515 2.95034 25.8869H11.1477C10.8734 26.3515 10.5742 26.802 10.2531 27.2403V27.1686H3.84492V27.2403ZM4.7991 28.4502H9.29894C8.59083 29.2833 7.82441 30.0708 7.04902 30.8296C6.27363 30.0708 5.50721 29.2833 4.7991 28.4502ZM6.39795 33.2275C6.61198 33.025 6.82986 32.8193 7.04902 32.611C7.26882 32.82 7.48606 33.0257 7.70009 33.2275C8.05639 33.5646 8.40435 33.8933 8.74014 34.2176H5.35725C5.69368 33.8933 6.04165 33.5646 6.39795 33.2275ZM2.98622 36.7809C3.29894 36.3624 3.66998 35.9356 4.08074 35.4992H10.0179C10.4287 35.9356 10.7997 36.3624 11.1125 36.7809H2.98622Z" fill="black"/>
<path d="M36.5303 34.8734H35.4966C37.0077 32.1378 37.8119 29.0465 37.8119 25.902C37.8119 20.7286 35.6453 15.7937 31.86 12.2807L33.5998 10.5409L32.3175 9.25857L34.6161 6.96123L35.2595 7.60397L38.0753 4.76322L33.3249 0L30.5091 2.85742L31.1448 3.49311L28.8443 5.78597L27.5671 4.50881L18.5956 13.4803L17.314 12.1987L14.4854 15.0272L23.0814 23.6232L25.91 20.7946L24.6283 19.513L28.2233 15.918C30.0721 17.5873 31.4345 19.7488 32.1336 22.1211C30.9853 22.3736 30.1221 23.3963 30.1221 24.6203C30.1221 26.0128 31.2397 27.1439 32.6238 27.1772C32.5732 27.7129 32.4886 28.2448 32.3746 28.7696C31.8734 28.5761 31.3313 28.4652 30.7629 28.4652H21.1506C19.3838 28.4652 17.9465 29.9026 17.9465 31.6693V32.3102H26.3284C26.2983 32.5203 26.2772 32.7331 26.2772 32.951V34.8734H17.3057C15.5389 34.8734 14.1016 36.3108 14.1016 38.0775V40H39.7344V38.0775C39.7344 36.3108 38.297 34.8734 36.5303 34.8734ZM33.33 1.81993L36.2669 4.76578L35.2544 5.78789L32.315 2.85037L33.33 1.81993ZM32.0516 4.39859L33.7094 6.05511L31.4114 8.35181L29.751 6.69145L32.0516 4.39859ZM23.0814 21.8103L16.2977 15.0266L17.314 14.0103L24.0977 20.794L23.0814 21.8103ZM23.7222 18.6062L19.5018 14.3858L27.5671 6.32041L31.7876 10.5409L23.7222 18.6062ZM29.1307 15.0106L30.9539 13.1874C34.4995 16.4601 36.5303 21.0689 36.5303 25.902C36.5303 28.1743 36.083 30.4172 35.2256 32.4986C35.1006 31.2566 34.4649 30.1653 33.5351 29.4316C33.7433 28.5857 33.8766 27.7187 33.9324 26.8459C34.7135 26.4063 35.2486 25.579 35.2486 24.6203C35.2486 23.4873 34.5053 22.5351 33.4845 22.1974C32.7687 19.4495 31.2422 16.9343 29.1307 15.0106ZM31.4037 24.6203C31.4037 23.9135 31.9785 23.3387 32.6854 23.3387C33.3922 23.3387 33.967 23.9135 33.967 24.6203C33.967 25.3271 33.3922 25.902 32.6854 25.902C31.9785 25.902 31.4037 25.3271 31.4037 24.6203ZM19.3377 31.0285C19.6024 30.2826 20.315 29.7469 21.1506 29.7469H27.6293C27.2531 30.1147 26.9449 30.5485 26.7161 31.0285H19.3377ZM38.4527 38.7184H15.3832V38.0775C15.3832 37.0176 16.2457 36.1551 17.3057 36.1551H28.8404V34.8734H27.5588V32.951C27.5588 31.1842 28.9962 29.7469 30.7629 29.7469C32.5296 29.7469 33.967 31.1842 33.967 32.951V34.8734H30.1221V36.1551H36.5303C37.5902 36.1551 38.4527 37.0176 38.4527 38.0775V38.7184Z" fill="black"/>
</svg>
