<svg width="40" height="40" viewBox="0 0 40 40" fill="none" xmlns="http://www.w3.org/2000/svg">
<path d="M32.3474 34.2106C31.3119 33.175 29.6267 33.175 28.591 34.2106C27.924 34.8776 27.6873 35.8138 27.8794 36.6726C25.4105 37.8431 22.762 38.4375 20 38.4375C9.83351 38.4375 1.5625 30.1665 1.5625 20C1.5625 15.2074 3.39226 10.6671 6.71484 7.21522C7.01406 6.90436 7.00461 6.40975 6.69375 6.11053C6.38289 5.81131 5.8882 5.82077 5.58906 6.13171C1.98492 9.87616 0 14.8013 0 20C0 25.3422 2.08039 30.3646 5.85789 34.1422C9.63539 37.9196 14.6578 40 20 40C23.0369 40 25.9478 39.3366 28.6585 38.0313C29.1672 38.506 29.818 38.7438 30.4692 38.7438C31.1494 38.7438 31.8296 38.485 32.3474 37.9672C33.383 36.9315 33.383 35.2463 32.3474 34.2106ZM31.2426 36.8623C30.8162 37.2887 30.1223 37.2887 29.6958 36.8623C29.2694 36.4359 29.2694 35.7419 29.6958 35.3155C29.909 35.1023 30.1891 34.9956 30.4693 34.9956C30.7493 34.9956 31.0294 35.1022 31.2426 35.3155C31.669 35.7419 31.669 36.4359 31.2426 36.8623Z" fill="black"/>
<path d="M38.5522 27.4814C39.5125 25.1054 40 22.5918 40 19.9996C40 15.5902 38.5301 11.2852 35.8503 7.80371C36.4813 6.78012 36.3544 5.41809 35.4679 4.53153C34.4323 3.49598 32.7471 3.49582 31.7114 4.53153C30.6758 5.56723 30.6758 7.25239 31.7114 8.28809C32.2292 8.8059 32.9095 9.06473 33.5897 9.06473C33.9593 9.06473 34.3287 8.98762 34.6723 8.83473C37.1046 12.0302 38.4374 15.9674 38.4374 19.9996C38.4374 22.3497 38.0028 24.6287 37.1472 26.7856C36.3335 26.655 35.4705 26.9019 34.8445 27.5278C33.8089 28.5635 33.8089 30.2486 34.8445 31.2843C35.3624 31.8022 36.0425 32.061 36.7228 32.061C37.403 32.061 38.0832 31.8022 38.601 31.2843C39.6367 30.2486 39.6367 28.5635 38.601 27.5278C38.5851 27.5118 38.5685 27.4968 38.5522 27.4814ZM34.3631 7.18324C34.3596 7.18668 34.3559 7.18949 34.3524 7.19293C34.3521 7.19317 34.3518 7.19332 34.3516 7.19356C34.3448 7.19918 34.3388 7.20535 34.3323 7.21114C33.9038 7.60832 33.2328 7.59988 32.8163 7.18324C32.3899 6.75684 32.3899 6.06285 32.8163 5.63645C33.0295 5.42324 33.3095 5.3166 33.5897 5.3166C33.8698 5.3166 34.1499 5.42317 34.3631 5.63645C34.7895 6.06285 34.7895 6.75684 34.3631 7.18324ZM37.4963 30.1795C37.0699 30.6059 36.376 30.6061 35.9495 30.1795C35.5231 29.7531 35.5231 29.0591 35.9495 28.6327C36.1627 28.4195 36.4428 28.3129 36.7229 28.3129C36.8842 28.3129 37.0452 28.3495 37.1938 28.4203C37.2173 28.4342 37.2417 28.4471 37.2671 28.4586C37.3489 28.5056 37.4264 28.5629 37.4963 28.6327C37.9228 29.0591 37.9228 29.7531 37.4963 30.1795Z" fill="black"/>
<path d="M28.2917 0.777969C27.3301 -0.183594 25.8088 -0.251719 24.7672 0.572344C23.2147 0.192813 21.6122 0 20 0C16.8002 0 13.7428 0.733203 10.9126 2.17922C10.5284 2.37555 10.3761 2.84617 10.5724 3.23039C10.7105 3.50078 10.9845 3.65633 11.2687 3.65633C11.3883 3.65633 11.5097 3.62875 11.6236 3.57062C14.2315 2.23812 17.0497 1.5625 20 1.5625C21.2988 1.5625 22.5904 1.6982 23.8499 1.96547C23.6125 2.85273 23.8404 3.83969 24.5352 4.53453C25.053 5.05234 25.7332 5.31117 26.4135 5.31117C27.0937 5.31117 27.7739 5.05234 28.2917 4.53453C29.3273 3.49883 29.3273 1.81367 28.2917 0.777969ZM27.1868 3.42969C26.7604 3.85609 26.0664 3.85609 25.64 3.42969C25.2135 3.00328 25.2135 2.3093 25.64 1.88289C25.8532 1.66961 26.1333 1.56305 26.4134 1.56305C26.6934 1.56305 26.9736 1.66961 27.1868 1.88289C27.6132 2.3093 27.6132 3.00328 27.1868 3.42969Z" fill="black"/>
<path d="M9.18015 4.10648C8.92703 3.75703 8.43867 3.67891 8.08914 3.93195C8.08734 3.93336 8.08266 3.93672 8.07992 3.93875C7.73266 4.19234 7.65555 4.6793 7.90797 5.02781C8.06078 5.2389 8.2993 5.35093 8.5414 5.35093C8.70023 5.35093 8.86047 5.30265 8.99898 5.20242C9.00133 5.2007 9.00328 5.19929 9.00562 5.1975C9.35508 4.94445 9.4332 4.45601 9.18015 4.10648Z" fill="black"/>
<path d="M26.5625 12.6562H13.4375C13.006 12.6562 12.6562 13.0061 12.6562 13.4375V26.5625C12.6562 26.9939 13.006 27.3438 13.4375 27.3438H26.5625C26.994 27.3438 27.3438 26.9939 27.3438 26.5625V13.4375C27.3438 13.0061 26.994 12.6562 26.5625 12.6562ZM25.7812 25.7812H14.2188V14.2188H25.7812V25.7812Z" fill="black"/>
<path d="M32.7344 18.9062C33.1659 18.9062 33.5156 18.5564 33.5156 18.125C33.5156 17.6936 33.1659 17.3438 32.7344 17.3438H30.4688V15.1562H32.7344C33.1659 15.1562 33.5156 14.8064 33.5156 14.375C33.5156 13.9436 33.1659 13.5938 32.7344 13.5938H30.4688V10.3125C30.4688 9.88109 30.119 9.53125 29.6875 9.53125H26.4062V7.26562C26.4062 6.83422 26.0565 6.48438 25.625 6.48438C25.1935 6.48438 24.8438 6.83422 24.8438 7.26562V9.53125H22.6562V7.26562C22.6562 6.83422 22.3065 6.48438 21.875 6.48438C21.4435 6.48438 21.0938 6.83422 21.0938 7.26562V9.53125H18.9062V7.26562C18.9062 6.83422 18.5565 6.48438 18.125 6.48438C17.6935 6.48438 17.3438 6.83422 17.3438 7.26562V9.53125H15.1562V7.26562C15.1562 6.83422 14.8065 6.48438 14.375 6.48438C13.9435 6.48438 13.5938 6.83422 13.5938 7.26562V9.53125H10.3125C9.88102 9.53125 9.53125 9.88109 9.53125 10.3125V13.5938H7.26562C6.83414 13.5938 6.48438 13.9436 6.48438 14.375C6.48438 14.8064 6.83414 15.1562 7.26562 15.1562H9.53125V17.3438H7.26562C6.83414 17.3438 6.48438 17.6936 6.48438 18.125C6.48438 18.5564 6.83414 18.9062 7.26562 18.9062H9.53125V21.0938H7.26562C6.83414 21.0938 6.48438 21.4436 6.48438 21.875C6.48438 22.3064 6.83414 22.6562 7.26562 22.6562H9.53125V24.8438H7.26562C6.83414 24.8438 6.48438 25.1936 6.48438 25.625C6.48438 26.0564 6.83414 26.4062 7.26562 26.4062H9.53125V29.6875C9.53125 30.1189 9.88102 30.4688 10.3125 30.4688H13.5938V32.7344C13.5938 33.1658 13.9435 33.5156 14.375 33.5156C14.8065 33.5156 15.1562 33.1658 15.1562 32.7344V30.4688H17.3438V32.7344C17.3438 33.1658 17.6935 33.5156 18.125 33.5156C18.5565 33.5156 18.9062 33.1658 18.9062 32.7344V30.4688H21.0938V32.7344C21.0938 33.1658 21.4435 33.5156 21.875 33.5156C22.3065 33.5156 22.6562 33.1658 22.6562 32.7344V30.4688H24.8438V32.7344C24.8438 33.1658 25.1935 33.5156 25.625 33.5156C26.0565 33.5156 26.4062 33.1658 26.4062 32.7344V30.4688H29.6875C30.119 30.4688 30.4688 30.1189 30.4688 29.6875V26.4062H32.7344C33.1659 26.4062 33.5156 26.0564 33.5156 25.625C33.5156 25.1936 33.1659 24.8438 32.7344 24.8438H30.4688V22.6562H32.7344C33.1659 22.6562 33.5156 22.3064 33.5156 21.875C33.5156 21.4436 33.1659 21.0938 32.7344 21.0938H30.4688V18.9062H32.7344ZM28.9062 28.9062H11.0938V11.0938H28.9062V28.9062Z" fill="black"/>
<path d="M23.1251 16.0938H19.9067C19.4752 16.0938 19.1255 16.4436 19.1255 16.875C19.1255 17.3064 19.4752 17.6562 19.9067 17.6562H23.1251C23.5566 17.6562 23.9063 17.3064 23.9063 16.875C23.9063 16.4436 23.5566 16.0938 23.1251 16.0938Z" fill="black"/>
<path d="M17.011 16.3227C16.8657 16.1773 16.6641 16.0938 16.4587 16.0938C16.2524 16.0938 16.0516 16.1773 15.9063 16.3227C15.7602 16.468 15.6774 16.6695 15.6774 16.875C15.6774 17.0805 15.7602 17.282 15.9063 17.4273C16.0516 17.5727 16.2532 17.6562 16.4587 17.6562C16.6641 17.6562 16.8657 17.5727 17.011 17.4273C17.1563 17.282 17.2399 17.0805 17.2399 16.875C17.2399 16.6695 17.1563 16.468 17.011 16.3227Z" fill="black"/>
<path d="M23.125 19.2188H16.4584C16.0269 19.2188 15.6771 19.5686 15.6771 20C15.6771 20.4314 16.0269 20.7812 16.4584 20.7812H23.125C23.5565 20.7812 23.9062 20.4314 23.9062 20C23.9062 19.5686 23.5565 19.2188 23.125 19.2188Z" fill="black"/>
<path d="M17.011 22.5727C16.8657 22.4273 16.6641 22.3438 16.4587 22.3438C16.2532 22.3438 16.0516 22.4273 15.9056 22.5727C15.7602 22.718 15.6774 22.9195 15.6774 23.125C15.6774 23.3305 15.7602 23.532 15.9056 23.6773C16.0516 23.8226 16.2532 23.9062 16.4587 23.9062C16.6641 23.9062 16.8657 23.8227 17.011 23.6773C17.1563 23.532 17.2399 23.3305 17.2399 23.125C17.2399 22.9195 17.1563 22.718 17.011 22.5727Z" fill="black"/>
<path d="M20.2287 22.5727C20.0834 22.4273 19.8819 22.3438 19.6764 22.3438C19.4709 22.3438 19.2694 22.4273 19.1241 22.5727C18.9788 22.718 18.8952 22.9195 18.8952 23.125C18.8952 23.3305 18.9788 23.532 19.1241 23.6773C19.2694 23.8226 19.4709 23.9062 19.6764 23.9062C19.8827 23.9062 20.0834 23.8227 20.2287 23.6773C20.3741 23.532 20.4576 23.3305 20.4576 23.125C20.4576 22.9187 20.3741 22.718 20.2287 22.5727Z" fill="black"/>
<path d="M23.6773 22.5727C23.532 22.4273 23.3305 22.3438 23.125 22.3438C22.9195 22.3438 22.718 22.4273 22.5727 22.5727C22.4273 22.718 22.3438 22.9187 22.3438 23.125C22.3438 23.3305 22.4273 23.532 22.5727 23.6773C22.718 23.8226 22.9195 23.9062 23.125 23.9062C23.3305 23.9062 23.532 23.8227 23.6773 23.6773C23.8227 23.532 23.9062 23.3305 23.9062 23.125C23.9062 22.9187 23.8227 22.718 23.6773 22.5727Z" fill="black"/>
</svg>
